<svg width="45" height="44" viewBox="0 0 45 44" fill="none" xmlns="http://www.w3.org/2000/svg">
<path d="M22.0836 26.4C24.5136 26.4 26.4836 24.4301 26.4836 22C26.4836 19.57 24.5136 17.6 22.0836 17.6C19.6535 17.6 17.6836 19.57 17.6836 22C17.6836 24.4301 19.6535 26.4 22.0836 26.4Z" fill="black"/>
<path d="M22.0844 28.6C31.8046 28.6 39.6844 25.6451 39.6844 22C39.6844 18.3549 31.8046 15.4 22.0844 15.4C12.3642 15.4 4.48438 18.3549 4.48438 22C4.48438 25.6451 12.3642 28.6 22.0844 28.6Z" stroke="black" stroke-width="0.72"/>
<path d="M16.3685 25.3C21.2286 33.7179 27.7275 39.0645 30.8842 37.242C34.041 35.4195 32.6601 27.1179 27.8 18.7C22.9399 10.282 16.441 4.93539 13.2842 6.75793C10.1275 8.58047 11.5084 16.882 16.3685 25.3Z" stroke="black" stroke-width="0.72"/>
<path d="M16.3681 18.7C11.508 27.1179 10.1271 35.4195 13.2838 37.242C16.4406 39.0646 22.9395 33.7179 27.7996 25.3C32.6597 16.882 34.0406 8.58048 30.8838 6.75794C27.7271 4.9354 21.2282 10.282 16.3681 18.7Z" stroke="black" stroke-width="0.72"/>
<path d="M39.6844 24.2C40.8994 24.2 41.8844 23.215 41.8844 22C41.8844 20.785 40.8994 19.8 39.6844 19.8C38.4693 19.8 37.4844 20.785 37.4844 22C37.4844 23.215 38.4693 24.2 39.6844 24.2Z" fill="black"/>
<path d="M13.284 29.92C14.499 29.92 15.484 28.935 15.484 27.72C15.484 26.505 14.499 25.52 13.284 25.52C12.069 25.52 11.084 26.505 11.084 27.72C11.084 28.935 12.069 29.92 13.284 29.92Z" fill="black"/>
<path d="M13.284 18.48C14.499 18.48 15.484 17.495 15.484 16.28C15.484 15.065 14.499 14.08 13.284 14.08C12.069 14.08 11.084 15.065 11.084 16.28C11.084 17.495 12.069 18.48 13.284 18.48Z" fill="black"/>
</svg>
